<mxfile host="app.diagrams.net" modified="2024-04-01T15:01:56.832Z" agent="Mozilla/5.0 (Windows NT 10.0; Win64; x64) AppleWebKit/537.36 (KHTML, like Gecko) Chrome/123.0.0.0 Safari/537.36 Edg/123.0.0.0" etag="9aKYLfs7oVR3fC1s0vmO" version="24.2.1" type="device">
  <diagram name="StrÃ¡nka-1" id="wMUXeQUmKYqSO3FJ7ChC">
    <mxGraphModel dx="1901" dy="2647" grid="1" gridSize="10" guides="1" tooltips="1" connect="1" arrows="1" fold="1" page="1" pageScale="1" pageWidth="1000" pageHeight="800" math="0" shadow="0">
      <root>
        <mxCell id="0" />
        <mxCell id="1" parent="0" />
        <mxCell id="EsF_oAgGYrWuFr0kMX3r-73" style="edgeStyle=orthogonalEdgeStyle;rounded=0;orthogonalLoop=1;jettySize=auto;html=1;entryX=0.814;entryY=0.881;entryDx=0;entryDy=0;exitX=0;exitY=0.5;exitDx=0;exitDy=0;entryPerimeter=0;" edge="1" parent="1" source="EsF_oAgGYrWuFr0kMX3r-5" target="EsF_oAgGYrWuFr0kMX3r-60">
          <mxGeometry relative="1" as="geometry">
            <mxPoint x="239.93" y="-1220" as="sourcePoint" />
          </mxGeometry>
        </mxCell>
        <mxCell id="EsF_oAgGYrWuFr0kMX3r-91" style="edgeStyle=orthogonalEdgeStyle;rounded=0;orthogonalLoop=1;jettySize=auto;html=1;entryX=0;entryY=1;entryDx=0;entryDy=0;exitX=1;exitY=0.5;exitDx=0;exitDy=0;" edge="1" parent="1" source="EsF_oAgGYrWuFr0kMX3r-5" target="EsF_oAgGYrWuFr0kMX3r-56">
          <mxGeometry relative="1" as="geometry">
            <mxPoint x="419.93" y="-1220" as="sourcePoint" />
            <mxPoint x="549.93" y="-1460" as="targetPoint" />
            <Array as="points">
              <mxPoint x="459.93" y="-1230" />
              <mxPoint x="459.93" y="-1482" />
            </Array>
          </mxGeometry>
        </mxCell>
        <mxCell id="EsF_oAgGYrWuFr0kMX3r-5" value="/ultrasonic_distance" style="rounded=0;whiteSpace=wrap;html=1;" vertex="1" parent="1">
          <mxGeometry x="259.86" y="-1260" width="120" height="60" as="geometry" />
        </mxCell>
        <mxCell id="EsF_oAgGYrWuFr0kMX3r-72" style="edgeStyle=orthogonalEdgeStyle;rounded=0;orthogonalLoop=1;jettySize=auto;html=1;entryX=0.713;entryY=0.939;entryDx=0;entryDy=0;entryPerimeter=0;exitX=0;exitY=0.5;exitDx=0;exitDy=0;" edge="1" parent="1" source="EsF_oAgGYrWuFr0kMX3r-10" target="EsF_oAgGYrWuFr0kMX3r-60">
          <mxGeometry relative="1" as="geometry">
            <mxPoint x="239.93" y="-1150" as="sourcePoint" />
          </mxGeometry>
        </mxCell>
        <mxCell id="EsF_oAgGYrWuFr0kMX3r-10" value="/ultrasonic_obstacle_warning" style="rounded=0;whiteSpace=wrap;html=1;" vertex="1" parent="1">
          <mxGeometry x="259.86" y="-1190" width="180" height="60" as="geometry" />
        </mxCell>
        <mxCell id="EsF_oAgGYrWuFr0kMX3r-71" style="edgeStyle=orthogonalEdgeStyle;rounded=0;orthogonalLoop=1;jettySize=auto;html=1;entryX=0.611;entryY=0.978;entryDx=0;entryDy=0;entryPerimeter=0;exitX=0;exitY=0.5;exitDx=0;exitDy=0;" edge="1" parent="1" source="EsF_oAgGYrWuFr0kMX3r-12" target="EsF_oAgGYrWuFr0kMX3r-60">
          <mxGeometry relative="1" as="geometry">
            <mxPoint x="259.86" y="-1099.9333333333334" as="sourcePoint" />
          </mxGeometry>
        </mxCell>
        <mxCell id="EsF_oAgGYrWuFr0kMX3r-12" value="/ultrasonic_obstacle_disappearance_warning" style="rounded=0;whiteSpace=wrap;html=1;" vertex="1" parent="1">
          <mxGeometry x="259.86" y="-1120" width="260" height="60" as="geometry" />
        </mxCell>
        <mxCell id="EsF_oAgGYrWuFr0kMX3r-79" style="edgeStyle=orthogonalEdgeStyle;rounded=0;orthogonalLoop=1;jettySize=auto;html=1;entryX=0.5;entryY=1;entryDx=0;entryDy=0;" edge="1" parent="1" source="EsF_oAgGYrWuFr0kMX3r-14" target="EsF_oAgGYrWuFr0kMX3r-37">
          <mxGeometry relative="1" as="geometry" />
        </mxCell>
        <mxCell id="EsF_oAgGYrWuFr0kMX3r-14" value="/imu_data" style="rounded=0;whiteSpace=wrap;html=1;" vertex="1" parent="1">
          <mxGeometry x="219.93" y="-930" width="120" height="60" as="geometry" />
        </mxCell>
        <mxCell id="EsF_oAgGYrWuFr0kMX3r-70" style="edgeStyle=orthogonalEdgeStyle;rounded=0;orthogonalLoop=1;jettySize=auto;html=1;exitX=0;exitY=0.5;exitDx=0;exitDy=0;entryX=0.516;entryY=0.996;entryDx=0;entryDy=0;entryPerimeter=0;" edge="1" parent="1" source="EsF_oAgGYrWuFr0kMX3r-16" target="EsF_oAgGYrWuFr0kMX3r-60">
          <mxGeometry relative="1" as="geometry">
            <mxPoint x="239.93" y="-1010" as="sourcePoint" />
          </mxGeometry>
        </mxCell>
        <mxCell id="EsF_oAgGYrWuFr0kMX3r-16" value="/not_moving_warning" style="rounded=0;whiteSpace=wrap;html=1;" vertex="1" parent="1">
          <mxGeometry x="259.86" y="-1050" width="140" height="60" as="geometry" />
        </mxCell>
        <mxCell id="EsF_oAgGYrWuFr0kMX3r-88" style="edgeStyle=orthogonalEdgeStyle;rounded=0;orthogonalLoop=1;jettySize=auto;html=1;entryX=0;entryY=0.5;entryDx=0;entryDy=0;" edge="1" parent="1" source="EsF_oAgGYrWuFr0kMX3r-19" target="EsF_oAgGYrWuFr0kMX3r-39">
          <mxGeometry relative="1" as="geometry" />
        </mxCell>
        <mxCell id="EsF_oAgGYrWuFr0kMX3r-19" value="/robot_transmitter_control_receiver" style="rounded=0;whiteSpace=wrap;html=1;" vertex="1" parent="1">
          <mxGeometry x="549.93" y="-1260" width="200" height="60" as="geometry" />
        </mxCell>
        <mxCell id="EsF_oAgGYrWuFr0kMX3r-21" value="/control_transmitter_robot_receiver" style="rounded=0;whiteSpace=wrap;html=1;" vertex="1" parent="1">
          <mxGeometry x="549.93" y="-1170" width="200" height="60" as="geometry" />
        </mxCell>
        <mxCell id="EsF_oAgGYrWuFr0kMX3r-22" value="/cmd_vel" style="rounded=0;whiteSpace=wrap;html=1;" vertex="1" parent="1">
          <mxGeometry x="429.93000000000006" y="-990" width="120" height="60" as="geometry" />
        </mxCell>
        <mxCell id="EsF_oAgGYrWuFr0kMX3r-100" style="edgeStyle=orthogonalEdgeStyle;rounded=0;orthogonalLoop=1;jettySize=auto;html=1;exitX=1;exitY=0.5;exitDx=0;exitDy=0;entryX=0;entryY=0.5;entryDx=0;entryDy=0;" edge="1" parent="1" source="EsF_oAgGYrWuFr0kMX3r-27" target="EsF_oAgGYrWuFr0kMX3r-96">
          <mxGeometry relative="1" as="geometry">
            <mxPoint x="839.93" y="-850" as="sourcePoint" />
            <mxPoint x="779.93" y="-870" as="targetPoint" />
            <Array as="points">
              <mxPoint x="769.93" y="-870" />
              <mxPoint x="769.93" y="-950" />
            </Array>
          </mxGeometry>
        </mxCell>
        <mxCell id="EsF_oAgGYrWuFr0kMX3r-27" value="keyboard_node" style="ellipse;whiteSpace=wrap;html=1;" vertex="1" parent="1">
          <mxGeometry x="599.93" y="-910" width="140" height="80" as="geometry" />
        </mxCell>
        <mxCell id="EsF_oAgGYrWuFr0kMX3r-74" style="edgeStyle=orthogonalEdgeStyle;rounded=0;orthogonalLoop=1;jettySize=auto;html=1;entryX=1;entryY=0.5;entryDx=0;entryDy=0;" edge="1" parent="1" source="EsF_oAgGYrWuFr0kMX3r-29" target="EsF_oAgGYrWuFr0kMX3r-22">
          <mxGeometry relative="1" as="geometry">
            <mxPoint x="679.93" y="-950" as="targetPoint" />
          </mxGeometry>
        </mxCell>
        <mxCell id="EsF_oAgGYrWuFr0kMX3r-99" style="edgeStyle=orthogonalEdgeStyle;rounded=0;orthogonalLoop=1;jettySize=auto;html=1;exitX=1;exitY=0.5;exitDx=0;exitDy=0;entryX=0;entryY=0.25;entryDx=0;entryDy=0;" edge="1" parent="1" source="EsF_oAgGYrWuFr0kMX3r-29" target="EsF_oAgGYrWuFr0kMX3r-96">
          <mxGeometry relative="1" as="geometry">
            <mxPoint x="779.93" y="-1030" as="targetPoint" />
            <Array as="points">
              <mxPoint x="739.93" y="-962" />
            </Array>
          </mxGeometry>
        </mxCell>
        <mxCell id="EsF_oAgGYrWuFr0kMX3r-29" value="gamepad_node" style="ellipse;whiteSpace=wrap;html=1;" vertex="1" parent="1">
          <mxGeometry x="599.93" y="-1000" width="140" height="80" as="geometry" />
        </mxCell>
        <mxCell id="EsF_oAgGYrWuFr0kMX3r-77" style="edgeStyle=orthogonalEdgeStyle;rounded=0;orthogonalLoop=1;jettySize=auto;html=1;entryX=0;entryY=0.5;entryDx=0;entryDy=0;" edge="1" parent="1" source="EsF_oAgGYrWuFr0kMX3r-37" target="EsF_oAgGYrWuFr0kMX3r-22">
          <mxGeometry relative="1" as="geometry" />
        </mxCell>
        <mxCell id="EsF_oAgGYrWuFr0kMX3r-37" value="motor_controller_node" style="ellipse;whiteSpace=wrap;html=1;" vertex="1" parent="1">
          <mxGeometry x="59.93" y="-1000" width="140" height="80" as="geometry" />
        </mxCell>
        <mxCell id="EsF_oAgGYrWuFr0kMX3r-86" style="edgeStyle=orthogonalEdgeStyle;rounded=0;orthogonalLoop=1;jettySize=auto;html=1;entryX=1;entryY=0.5;entryDx=0;entryDy=0;" edge="1" parent="1" source="EsF_oAgGYrWuFr0kMX3r-38" target="EsF_oAgGYrWuFr0kMX3r-21">
          <mxGeometry relative="1" as="geometry" />
        </mxCell>
        <mxCell id="EsF_oAgGYrWuFr0kMX3r-38" value="sound_transmitter_node" style="ellipse;whiteSpace=wrap;html=1;" vertex="1" parent="1">
          <mxGeometry x="819.93" y="-1180" width="140" height="80" as="geometry" />
        </mxCell>
        <mxCell id="EsF_oAgGYrWuFr0kMX3r-39" value="sound_receiver_node" style="ellipse;whiteSpace=wrap;html=1;" vertex="1" parent="1">
          <mxGeometry x="819.93" y="-1270" width="140" height="80" as="geometry" />
        </mxCell>
        <mxCell id="EsF_oAgGYrWuFr0kMX3r-82" style="edgeStyle=orthogonalEdgeStyle;rounded=0;orthogonalLoop=1;jettySize=auto;html=1;entryX=0;entryY=0.5;entryDx=0;entryDy=0;exitX=1;exitY=0.5;exitDx=0;exitDy=0;" edge="1" parent="1" source="EsF_oAgGYrWuFr0kMX3r-41" target="EsF_oAgGYrWuFr0kMX3r-56">
          <mxGeometry relative="1" as="geometry">
            <mxPoint x="429.93" y="-1290" as="sourcePoint" />
            <mxPoint x="569.93" y="-1460" as="targetPoint" />
            <Array as="points">
              <mxPoint x="429.93" y="-1310" />
              <mxPoint x="429.93" y="-1510" />
            </Array>
          </mxGeometry>
        </mxCell>
        <mxCell id="EsF_oAgGYrWuFr0kMX3r-41" value="/wandering_state" style="rounded=0;whiteSpace=wrap;html=1;" vertex="1" parent="1">
          <mxGeometry x="259.86" y="-1340" width="120" height="60" as="geometry" />
        </mxCell>
        <mxCell id="EsF_oAgGYrWuFr0kMX3r-83" style="edgeStyle=orthogonalEdgeStyle;rounded=0;orthogonalLoop=1;jettySize=auto;html=1;entryX=0.5;entryY=0;entryDx=0;entryDy=0;" edge="1" parent="1" source="EsF_oAgGYrWuFr0kMX3r-47" target="EsF_oAgGYrWuFr0kMX3r-39">
          <mxGeometry relative="1" as="geometry" />
        </mxCell>
        <mxCell id="EsF_oAgGYrWuFr0kMX3r-84" style="edgeStyle=orthogonalEdgeStyle;rounded=0;orthogonalLoop=1;jettySize=auto;html=1;entryX=1;entryY=0.5;entryDx=0;entryDy=0;exitX=1;exitY=0.25;exitDx=0;exitDy=0;" edge="1" parent="1" source="EsF_oAgGYrWuFr0kMX3r-47" target="EsF_oAgGYrWuFr0kMX3r-38">
          <mxGeometry relative="1" as="geometry">
            <Array as="points">
              <mxPoint x="989.93" y="-1325" />
              <mxPoint x="989.93" y="-1140" />
            </Array>
          </mxGeometry>
        </mxCell>
        <mxCell id="EsF_oAgGYrWuFr0kMX3r-47" value="/audio_toggle_topics" style="rounded=0;whiteSpace=wrap;html=1;" vertex="1" parent="1">
          <mxGeometry x="629.93" y="-1340" width="120" height="60" as="geometry" />
        </mxCell>
        <mxCell id="EsF_oAgGYrWuFr0kMX3r-85" style="edgeStyle=orthogonalEdgeStyle;rounded=0;orthogonalLoop=1;jettySize=auto;html=1;entryX=0.5;entryY=0;entryDx=0;entryDy=0;exitX=1;exitY=1;exitDx=0;exitDy=0;" edge="1" parent="1" source="EsF_oAgGYrWuFr0kMX3r-56" target="EsF_oAgGYrWuFr0kMX3r-47">
          <mxGeometry relative="1" as="geometry" />
        </mxCell>
        <mxCell id="EsF_oAgGYrWuFr0kMX3r-89" style="edgeStyle=orthogonalEdgeStyle;rounded=0;orthogonalLoop=1;jettySize=auto;html=1;entryX=0.5;entryY=0;entryDx=0;entryDy=0;exitX=1;exitY=0.5;exitDx=0;exitDy=0;" edge="1" parent="1" source="EsF_oAgGYrWuFr0kMX3r-56" target="EsF_oAgGYrWuFr0kMX3r-63">
          <mxGeometry relative="1" as="geometry">
            <Array as="points">
              <mxPoint x="859.93" y="-1510" />
            </Array>
          </mxGeometry>
        </mxCell>
        <mxCell id="EsF_oAgGYrWuFr0kMX3r-95" style="edgeStyle=orthogonalEdgeStyle;rounded=0;orthogonalLoop=1;jettySize=auto;html=1;exitX=1;exitY=0;exitDx=0;exitDy=0;entryX=0;entryY=0.5;entryDx=0;entryDy=0;" edge="1" parent="1" source="EsF_oAgGYrWuFr0kMX3r-56" target="EsF_oAgGYrWuFr0kMX3r-94">
          <mxGeometry relative="1" as="geometry">
            <mxPoint x="769.93" y="-1560" as="targetPoint" />
            <Array as="points">
              <mxPoint x="728.93" y="-1560" />
            </Array>
          </mxGeometry>
        </mxCell>
        <mxCell id="EsF_oAgGYrWuFr0kMX3r-56" value="ui_bridge_node" style="ellipse;whiteSpace=wrap;html=1;" vertex="1" parent="1">
          <mxGeometry x="609.93" y="-1550" width="140" height="80" as="geometry" />
        </mxCell>
        <mxCell id="EsF_oAgGYrWuFr0kMX3r-90" style="edgeStyle=orthogonalEdgeStyle;rounded=0;orthogonalLoop=1;jettySize=auto;html=1;entryX=0.5;entryY=1;entryDx=0;entryDy=0;" edge="1" parent="1" source="EsF_oAgGYrWuFr0kMX3r-57" target="EsF_oAgGYrWuFr0kMX3r-56">
          <mxGeometry relative="1" as="geometry">
            <Array as="points">
              <mxPoint x="549.93" y="-1450" />
              <mxPoint x="679.93" y="-1450" />
            </Array>
          </mxGeometry>
        </mxCell>
        <mxCell id="EsF_oAgGYrWuFr0kMX3r-57" value="/camera_stream" style="rounded=0;whiteSpace=wrap;html=1;" vertex="1" parent="1">
          <mxGeometry x="489.93" y="-1420" width="120" height="60" as="geometry" />
        </mxCell>
        <mxCell id="EsF_oAgGYrWuFr0kMX3r-65" style="edgeStyle=orthogonalEdgeStyle;rounded=0;orthogonalLoop=1;jettySize=auto;html=1;entryX=0;entryY=0.5;entryDx=0;entryDy=0;" edge="1" parent="1" source="EsF_oAgGYrWuFr0kMX3r-58" target="EsF_oAgGYrWuFr0kMX3r-59">
          <mxGeometry relative="1" as="geometry">
            <Array as="points">
              <mxPoint x="129.93" y="-1490" />
            </Array>
          </mxGeometry>
        </mxCell>
        <mxCell id="EsF_oAgGYrWuFr0kMX3r-67" style="edgeStyle=orthogonalEdgeStyle;rounded=0;orthogonalLoop=1;jettySize=auto;html=1;exitX=0;exitY=0.5;exitDx=0;exitDy=0;" edge="1" parent="1" source="EsF_oAgGYrWuFr0kMX3r-58" target="EsF_oAgGYrWuFr0kMX3r-22">
          <mxGeometry relative="1" as="geometry">
            <mxPoint x="39.93" y="-1440" as="sourcePoint" />
            <Array as="points">
              <mxPoint x="9.93" y="-1400" />
              <mxPoint x="9.93" y="-810" />
              <mxPoint x="489.93" y="-810" />
            </Array>
          </mxGeometry>
        </mxCell>
        <mxCell id="EsF_oAgGYrWuFr0kMX3r-58" value="line_following_node" style="ellipse;whiteSpace=wrap;html=1;" vertex="1" parent="1">
          <mxGeometry x="59.93" y="-1440" width="140" height="80" as="geometry" />
        </mxCell>
        <mxCell id="EsF_oAgGYrWuFr0kMX3r-66" style="edgeStyle=orthogonalEdgeStyle;rounded=0;orthogonalLoop=1;jettySize=auto;html=1;entryX=0.5;entryY=0;entryDx=0;entryDy=0;exitX=0.5;exitY=0;exitDx=0;exitDy=0;" edge="1" parent="1" source="EsF_oAgGYrWuFr0kMX3r-59" target="EsF_oAgGYrWuFr0kMX3r-56">
          <mxGeometry relative="1" as="geometry">
            <mxPoint x="419.93" y="-1530" as="sourcePoint" />
            <Array as="points">
              <mxPoint x="319.93" y="-1570" />
              <mxPoint x="679.93" y="-1570" />
            </Array>
          </mxGeometry>
        </mxCell>
        <mxCell id="EsF_oAgGYrWuFr0kMX3r-59" value="/line_following_state" style="rounded=0;whiteSpace=wrap;html=1;" vertex="1" parent="1">
          <mxGeometry x="259.86" y="-1520" width="120" height="60" as="geometry" />
        </mxCell>
        <mxCell id="EsF_oAgGYrWuFr0kMX3r-76" style="edgeStyle=orthogonalEdgeStyle;rounded=0;orthogonalLoop=1;jettySize=auto;html=1;entryX=0.25;entryY=1;entryDx=0;entryDy=0;" edge="1" parent="1" source="EsF_oAgGYrWuFr0kMX3r-60" target="EsF_oAgGYrWuFr0kMX3r-22">
          <mxGeometry relative="1" as="geometry">
            <Array as="points">
              <mxPoint x="39.93" y="-1310" />
              <mxPoint x="39.93" y="-840" />
              <mxPoint x="459.93" y="-840" />
            </Array>
          </mxGeometry>
        </mxCell>
        <mxCell id="EsF_oAgGYrWuFr0kMX3r-78" style="edgeStyle=orthogonalEdgeStyle;rounded=0;orthogonalLoop=1;jettySize=auto;html=1;entryX=0;entryY=0;entryDx=0;entryDy=0;exitX=0;exitY=1;exitDx=0;exitDy=0;" edge="1" parent="1" source="EsF_oAgGYrWuFr0kMX3r-60" target="EsF_oAgGYrWuFr0kMX3r-37">
          <mxGeometry relative="1" as="geometry">
            <mxPoint x="59.86000000000006" y="-1300" as="sourcePoint" />
            <mxPoint x="59.93" y="-940" as="targetPoint" />
            <Array as="points">
              <mxPoint x="80.93" y="-1170" />
              <mxPoint x="80.93" y="-1170" />
            </Array>
          </mxGeometry>
        </mxCell>
        <mxCell id="EsF_oAgGYrWuFr0kMX3r-81" style="edgeStyle=orthogonalEdgeStyle;rounded=0;orthogonalLoop=1;jettySize=auto;html=1;entryX=0;entryY=0.5;entryDx=0;entryDy=0;" edge="1" parent="1" source="EsF_oAgGYrWuFr0kMX3r-60" target="EsF_oAgGYrWuFr0kMX3r-41">
          <mxGeometry relative="1" as="geometry" />
        </mxCell>
        <mxCell id="EsF_oAgGYrWuFr0kMX3r-60" value="wandering_node" style="ellipse;whiteSpace=wrap;html=1;" vertex="1" parent="1">
          <mxGeometry x="59.86000000000001" y="-1350" width="140" height="80" as="geometry" />
        </mxCell>
        <mxCell id="EsF_oAgGYrWuFr0kMX3r-80" style="edgeStyle=orthogonalEdgeStyle;rounded=0;orthogonalLoop=1;jettySize=auto;html=1;entryX=1;entryY=0.5;entryDx=0;entryDy=0;" edge="1" parent="1" source="EsF_oAgGYrWuFr0kMX3r-62" target="EsF_oAgGYrWuFr0kMX3r-58">
          <mxGeometry relative="1" as="geometry" />
        </mxCell>
        <mxCell id="EsF_oAgGYrWuFr0kMX3r-92" style="edgeStyle=orthogonalEdgeStyle;rounded=0;orthogonalLoop=1;jettySize=auto;html=1;entryX=0;entryY=0;entryDx=0;entryDy=0;" edge="1" parent="1" source="EsF_oAgGYrWuFr0kMX3r-62" target="EsF_oAgGYrWuFr0kMX3r-56">
          <mxGeometry relative="1" as="geometry">
            <Array as="points">
              <mxPoint x="399.93" y="-1400" />
              <mxPoint x="399.93" y="-1540" />
              <mxPoint x="630.93" y="-1540" />
            </Array>
          </mxGeometry>
        </mxCell>
        <mxCell id="EsF_oAgGYrWuFr0kMX3r-62" value="/line_visibility" style="rounded=0;whiteSpace=wrap;html=1;" vertex="1" parent="1">
          <mxGeometry x="259.86" y="-1430" width="120" height="60" as="geometry" />
        </mxCell>
        <mxCell id="EsF_oAgGYrWuFr0kMX3r-63" value="/toggle_services&lt;br&gt;for&lt;br&gt;keyboard, gamepad, wandering, line_following,&amp;nbsp;" style="rounded=0;whiteSpace=wrap;html=1;" vertex="1" parent="1">
          <mxGeometry x="759.93" y="-1460" width="200" height="70" as="geometry" />
        </mxCell>
        <mxCell id="EsF_oAgGYrWuFr0kMX3r-75" style="edgeStyle=orthogonalEdgeStyle;rounded=0;orthogonalLoop=1;jettySize=auto;html=1;entryX=1;entryY=0.75;entryDx=0;entryDy=0;exitX=0;exitY=0.5;exitDx=0;exitDy=0;" edge="1" parent="1" source="EsF_oAgGYrWuFr0kMX3r-27" target="EsF_oAgGYrWuFr0kMX3r-22">
          <mxGeometry relative="1" as="geometry">
            <mxPoint x="679.93" y="-880" as="targetPoint" />
            <Array as="points">
              <mxPoint x="579.93" y="-870" />
              <mxPoint x="579.93" y="-945" />
            </Array>
          </mxGeometry>
        </mxCell>
        <mxCell id="EsF_oAgGYrWuFr0kMX3r-94" value="&lt;div&gt;&amp;lt;&amp;lt;service&amp;gt;&amp;gt;&lt;/div&gt;&lt;div&gt;&lt;span style=&quot;background-color: initial;&quot;&gt;/change_rgb_color&lt;/span&gt;&lt;/div&gt;" style="shape=parallelogram;perimeter=parallelogramPerimeter;whiteSpace=wrap;html=1;fixedSize=1;" vertex="1" parent="1">
          <mxGeometry x="769.93" y="-1590" width="150" height="60" as="geometry" />
        </mxCell>
        <mxCell id="EsF_oAgGYrWuFr0kMX3r-96" value="&lt;div&gt;&amp;lt;&amp;lt;action&amp;gt;&amp;gt;&lt;/div&gt;/put_servo_to_pos" style="shape=parallelogram;perimeter=parallelogramPerimeter;whiteSpace=wrap;html=1;fixedSize=1;" vertex="1" parent="1">
          <mxGeometry x="789.93" y="-980" width="150" height="60" as="geometry" />
        </mxCell>
      </root>
    </mxGraphModel>
  </diagram>
</mxfile>
